<svg width="59" height="86" viewBox="0 0 59 86" fill="none" xmlns="http://www.w3.org/2000/svg">
    <path d="M16.8149 12.4726C16.8149 10.3867 18.5177 8.72655 20.561 8.72655H22.3914C24.4773 8.72655 26.1374 10.4293 26.1374 12.4726V14.303C26.1374 16.3889 24.4347 18.0491 22.3914 18.0491H20.561C18.4751 18.0491 16.8149 16.3463 16.8149 14.303V12.4726ZM20.561 26.8182H22.3914C29.2875 26.8182 34.864 21.2417 34.864 14.3456V12.5152C34.864 5.57648 29.2875 0 22.3914 0H20.561C13.6649 0 8.08838 5.57648 8.08838 12.4726V14.303C8.08838 21.1991 13.6649 26.8182 20.561 26.8182Z" fill="#024BBB"/>
    <path d="M30.4791 76.4957H8.72655V47.5065C8.72655 45.4206 10.4293 43.7605 12.4726 43.7605H29.5426H34.2251V72.7496C34.2677 74.7929 32.5649 76.4957 30.4791 76.4957ZM50.316 0V25.3709C50.316 30.6919 46.0166 34.9913 40.6955 35.0339H12.4726C5.57648 35.0339 0 40.6104 0 47.5065V85.2222H30.4791C37.3752 85.2222 42.9517 79.6457 42.9517 72.7496V43.5902C51.9762 42.4408 59 34.7359 59 25.3709V0H50.316Z" fill="#024BBB"/>
</svg>