<svg xmlns="http://www.w3.org/2000/svg" fill="none" viewBox="0 0 512 512">
  <g fill="#fff">
    <path d="M394.1 244.9h15.1c1.9 0 2.4-.6 2.7-2.2a10.9 10.9 0 0111.4-9.8 10.9 10.9 0 0110.6 11.2v23.3a11.5 11.5 0 01-10.4 11.2 10.6 10.6 0 01-11.6-9.9c-.3-1.6-.8-1.8-2.4-1.8h-30.8c-1.6 0-2.4.5-2.6 2.1a110 110 0 01-9.3 35.6c-.8 1.3-.6 2 .8 2.6l27 16c1 .5 1.9.5 2.7-.6 4.5-5.3 10.6-6.1 15.4-2.7 4.7 3.8 5.8 9.6 2.6 15.4L404.7 354c-3.4 5.8-9 8-14.6 5.3-5.8-2.6-8-8-5.6-14.6.3-1.3 0-1.8-.7-2.4l-27.6-15.9c-1.1-.8-1.6 0-2.4.8a119.4 119.4 0 01-26.6 26.5c-1.3.8-1 1.6-.2 2.7l15.1 26.5c.8 1.6 1.6 1.9 3.4 1.4a10.6 10.6 0 0113.8 5.3 10.6 10.6 0 01-4.5 14.3l-19.6 11.4c-5.3 3.2-11.7 1.9-14.9-3a11 11 0 012.2-15c1.6-1.1 1.6-1.6.8-3.2l-15.7-26.6c-.5-1.3-1.3-1.6-2.6-1a112.3 112.3 0 01-35.6 9.5c-1.9 0-2.4.8-2.4 2.7V409c0 1.6.3 2.1 1.9 2.6 6.3.8 10.6 5.9 9.8 11.7-.5 6.1-5.3 10.1-11.7 10.1h-21.7c-6.7 0-11.2-4-12-10-.5-6 3.5-10.7 9.8-12 1.6-.3 1.9-1 1.9-2.4v-30.5c0-1.9-.5-2.7-2.7-2.7-12-1.3-23.8-4.5-35-9.3-1.3-.8-2.1-.8-3 .8A2066.9 2066.9 0 01189 394c-.8 1.6-.8 2 .3 3.2 5.3 4.2 6 10.6 2.6 15-3.4 5.1-9.5 6.2-15.4 2.7l-19-10.9a11.1 11.1 0 01-4.8-14.3c2.3-5.3 8-8 14-5.5 1.6.5 2.4.2 3.2-1.1l15.4-26.5c.8-1.6.8-2.2-.5-3.2-10.1-7.2-18.9-16-26.6-26.3-.5-1-1.3-1.3-2.6-.5L129 342c-1.5.8-1.8 1.3-1.3 3.1a10.6 10.6 0 01-5.3 14.1c-5.3 2.7-11.4.5-14.6-4.8a1016.2 1016.2 0 01-10.9-19c-3.1-5.6-1.8-11.7 2.7-15.2 5.3-3.4 11.1-2.6 15.4 2.7 1 1 1.6 1.3 2.9.2l26.5-15.4c1.6-.8 2.2-1.3 1.4-2.9a114.6 114.6 0 01-9.9-35.8c0-1.6-.5-2.1-2-2.1h-31.7c-1.3 0-1.8.2-2 1.8-1.1 6.4-6 10.1-12 9.6C82.3 278 78 273 78 266.6v-22c0-6.4 4.5-11.2 10.6-11.7 5.3-.2 10.6 3.7 11.4 9.8.3 1.6.8 2.2 2.4 2.2h30.8c1.8 0 2.4-.8 2.6-2.4 1.1-12.2 4.3-24.2 9.3-35.3.8-1.9.3-2.4-1-3.2l-26.6-15.4c-1.3-.5-1.8-1-3.2.5-4.2 5-10.3 5.9-15 2.4-4.8-3.4-6.2-9.5-2.7-15.1l10.6-19.1c3.4-5.3 9.3-7.4 14.6-5.3 5.3 2.6 8 8.5 5.6 14.6-.6 1.6 0 2.1 1 3l26.8 15.6c1.3.8 2.1.5 3-.8 7.4-10.1 16.1-18.9 26.2-26.3 1.3-.8 1.3-1.6.5-2.7l-15.1-27c-.8-1.6-1.3-1.9-3.2-1a10.6 10.6 0 01-14-5.7 11 11 0 014.7-14.3l19.1-10.9c5.9-3.1 12-2 15.4 2.7 3.5 4.8 2.7 10.9-2.4 15.1-1.3 1-1.3 1.9-.5 3.2l15.4 26.5c.8 1.6 1.6 1.6 3.2 1.1a116.7 116.7 0 0135.3-9.6c1.6 0 2-.5 2-2v-31.1c0-1.6-.4-2.1-2-2.7a10.6 10.6 0 01-9.6-11.1A10.6 10.6 0 01244 78.5h24.4A10.6 10.6 0 01279 89.1a10.6 10.6 0 01-9.5 10.9c-2.1 0-2.4 1-2.4 2.6v30c0 1.9.5 2.7 2.7 3 11.9 1.3 23.6 4.5 34.5 9.2 1.8.8 2.6.8 4-1l14.8-26c1-1.6.8-2.7-.8-3.7a11.1 11.1 0 0112.7-18l20 11.6a11 11 0 014.4 14.6c-2.3 5-8 7.4-13.8 5.3-1.8-.8-2.6-.5-3.4 1a1355.8 1355.8 0 01-15.1 26.6c-.8 1.3-.8 2.1.5 3.2 10 7.1 18.6 15.9 26 26 1.3 1.6 2.1 1.3 3.5.5l26.2-15.1c1.3-.8 1.9-1.6 1-3.5a10.6 10.6 0 015.7-14 11 11 0 0114.3 4.7l11.4 19.7c3.2 5.3 1.8 11.6-3 14.8a10.9 10.9 0 01-15-2.1c-1.1-1.3-1.6-1.9-3.2-.8a525 525 0 01-26.6 15.1c-1.3 1-1.8 1.6-1 3.5a108.8 108.8 0 019.5 35.5c0 1.9.8 2.2 2.7 2.2h15.4zm-138 109.5a98.7 98.7 0 100-196.8 98.7 98.7 0 000 197.1z"/>
    <path d="M317.2 213a32.4 32.4 0 11-64.8 0 32.6 32.6 0 0165 0zm-32.4-10.6a10.6 10.6 0 00-10.6 10.6 10.6 10.6 0 0010.6 10.4 10.6 10.6 0 004-20.2c-1.1-.5-2.7-.8-4-.8zm-87.6 87.8a32.6 32.6 0 110-65.2 32.6 32.6 0 010 65zm.3-22.3a10.3 10.3 0 0010.3-10.6 10.6 10.6 0 10-21 .3 10.3 10.3 0 0010.7 10.3zm76.4 7.2a32.6 32.6 0 110 65 32.6 32.6 0 010-65zm0 22a10.6 10.6 0 00-4.2 20 10.6 10.6 0 104.5-20z"/>
  </g>
</svg>