<svg width="58" height="85" viewBox="0 0 58 85" fill="none" xmlns="http://www.w3.org/2000/svg">
<path d="M49.4399 31.4186C49.4399 31.9281 49.3564 32.3951 49.1476 32.8197L39.8776 55.8317L29.9395 80.6693H28.0187L15.7005 49.9301L8.85241 32.8621C8.68538 32.3951 8.56011 31.9281 8.56011 31.461V12.4401C8.56011 10.3596 10.2304 8.7038 12.2347 8.7038H16.7444C18.7905 8.7038 20.419 10.4021 20.419 12.4401V21.9081H37.4975V12.4401C37.4975 10.3596 39.1677 8.7038 41.1721 8.7038H45.6818C47.7279 8.7038 49.3564 10.4021 49.3564 12.4401V31.4186H49.4399ZM45.7235 0H41.2138C34.491 0 28.9791 5.56194 28.9791 12.4401C28.9791 5.56194 23.509 0 16.7444 0H12.2347C5.47012 0 0 5.56194 0 12.4401V31.4186C0 33.032 0.292297 34.6454 0.918646 36.1314L20.586 85H37.414L57.0814 36.1314C57.6659 34.6454 58 33.032 58 31.4186V12.4401C57.9582 5.56194 52.4881 0 45.7235 0Z" fill="#6E662B"/>
</svg>
