<svg width="136" height="136" viewBox="0 0 136 136" fill="none" xmlns="http://www.w3.org/2000/svg">
<path d="M135.5 61.2508C135.519 56.4932 134.28 51.815 131.909 47.69C129.539 43.565 126.12 40.1396 122 37.7608C122.101 36.593 122.101 35.4186 122 34.2508C122 28.8802 119.866 23.7295 116.069 19.9319C112.271 16.1343 107.12 14.0008 101.75 14.0008H100.535C99.4107 10.8844 97.5392 8.09143 95.0844 5.86672C92.6296 3.64201 89.6665 2.05356 86.4548 1.24066C83.2432 0.427753 79.8812 0.415228 76.6636 1.20418C73.446 1.99314 70.4711 3.55947 67.9998 5.76583C65.5285 3.55947 62.5536 1.99314 59.336 1.20418C56.1184 0.415228 52.7563 0.427753 49.5447 1.24066C46.3331 2.05356 43.3699 3.64201 40.9151 5.86672C38.4603 8.09143 36.5888 10.8844 35.4648 14.0008H34.2498C28.8791 14.0008 23.7285 16.1343 19.9309 19.9319C16.1332 23.7295 13.9998 28.8802 13.9998 34.2508C13.8982 35.4186 13.8982 36.593 13.9998 37.7608C10.1689 39.9262 6.92531 42.9951 4.55139 46.7003C2.17748 50.4056 0.74519 54.635 0.379197 59.0202C0.0132037 63.4055 0.724603 67.8138 2.45147 71.8613C4.17833 75.9088 6.86832 79.4729 10.2873 82.2433C8.0751 86.3694 6.9738 90.9997 7.09145 95.6799C7.20911 100.36 8.54168 104.929 10.9584 108.939C13.3751 112.949 16.7928 116.261 20.8762 118.551C24.9596 120.841 29.5682 122.03 34.2498 122.001H35.4648C36.5888 125.117 38.4603 127.91 40.9151 130.135C43.3699 132.36 46.3331 133.948 49.5447 134.761C52.7563 135.574 56.1184 135.586 59.336 134.797C62.5536 134.009 65.5285 132.442 67.9998 130.236C70.4711 132.442 73.446 134.009 76.6636 134.797C79.8812 135.586 83.2432 135.574 86.4548 134.761C89.6665 133.948 92.6296 132.36 95.0844 130.135C97.5392 127.91 99.4107 125.117 100.535 122.001H101.75C106.403 121.971 110.969 120.74 115.006 118.426C119.043 116.112 122.413 112.794 124.79 108.794C127.167 104.794 128.47 100.247 128.573 95.5955C128.675 90.9436 127.573 86.3442 125.375 82.2433C128.523 79.7226 131.067 76.5285 132.819 72.8958C134.571 69.2631 135.487 65.284 135.5 61.2508ZM61.2498 44.7133C59.7796 43.8725 58.2448 43.1502 56.6598 42.5533C54.9591 41.9805 53.1005 42.1067 51.4928 42.9042C49.8851 43.7017 48.6601 45.1051 48.0873 46.8058C47.5144 48.5065 47.6406 50.3651 48.4381 51.9728C49.2356 53.5805 50.6391 54.8055 52.3398 55.3783C54.9381 56.3177 57.1857 58.0317 58.779 60.2889C60.3724 62.5462 61.2348 65.2379 61.2498 68.0008V78.4633C59.7796 77.6225 58.2448 76.9002 56.6598 76.3033C54.9591 75.7305 53.1005 75.8567 51.4928 76.6542C49.8851 77.4517 48.6601 78.8551 48.0873 80.5558C47.5144 82.2565 47.6406 84.1151 48.4381 85.7228C49.2356 87.3305 50.6391 88.5555 52.3398 89.1283C54.9381 90.0677 57.1857 91.7817 58.779 94.0389C60.3724 96.2962 61.2348 98.9879 61.2498 101.751V115.251C61.2498 117.041 60.5386 118.758 59.2727 120.024C58.0069 121.29 56.29 122.001 54.4998 122.001C53.1939 121.992 51.9185 121.605 50.8282 120.886C49.7379 120.167 48.8796 119.148 48.3573 117.951C49.4891 117.287 50.5719 116.542 51.5973 115.723C52.2798 115.156 52.8439 114.46 53.2574 113.674C53.6709 112.889 53.9257 112.03 54.0072 111.146C54.0886 110.263 53.9953 109.371 53.7323 108.524C53.4694 107.676 53.0421 106.888 52.4748 106.206C51.9075 105.523 51.2113 104.959 50.4259 104.546C49.6406 104.132 48.7815 103.877 47.8978 103.796C47.014 103.714 46.1228 103.808 45.2751 104.071C44.4274 104.334 43.6398 104.761 42.9573 105.328C40.52 107.38 37.4357 108.504 34.2498 108.501C30.6693 108.501 27.2356 107.079 24.7038 104.547C22.1721 102.015 20.7498 98.5812 20.7498 95.0008C20.7821 92.4601 21.5308 89.98 22.9098 87.8458C24.4246 88.1175 25.9608 88.2531 27.4998 88.2508C29.29 88.2508 31.0069 87.5397 32.2727 86.2738C33.5386 85.0079 34.2498 83.291 34.2498 81.5008C34.2498 79.7106 33.5386 77.9937 32.2727 76.7279C31.0069 75.462 29.29 74.7508 27.4998 74.7508C25.9053 74.76 24.3241 74.4621 22.8423 73.8733C20.4146 72.9978 18.2888 71.4447 16.7166 69.3981C15.1444 67.3515 14.1918 64.8972 13.9716 62.3259C13.7514 59.7545 14.2729 57.174 15.4742 54.8899C16.6755 52.6058 18.5063 50.7139 20.7498 49.4383C21.7089 50.3208 22.7485 51.1118 23.8548 51.8008C25.4123 52.6959 27.2615 52.9357 28.9958 52.4673C30.73 51.9989 32.2072 50.8608 33.1023 49.3033C33.9974 47.7458 34.2371 45.8966 33.7687 44.1623C33.3004 42.4281 32.1623 40.9509 30.6048 40.0558C29.6545 39.5316 28.8621 38.7625 28.3098 37.8283C27.6857 36.7446 27.4034 35.4977 27.4998 34.2508C27.4998 32.4606 28.2109 30.7437 29.4768 29.4779C30.7427 28.212 32.4596 27.5008 34.2498 27.5008C34.72 27.4352 35.197 27.4352 35.6673 27.5008C36.0246 28.5854 36.453 29.6452 36.9498 30.6733C37.3908 31.4468 37.9804 32.1254 38.6847 32.67C39.3891 33.2146 40.1942 33.6145 41.0537 33.8466C41.9133 34.0788 42.8103 34.1386 43.693 34.0226C44.5758 33.9066 45.4269 33.6171 46.1973 33.1708C47.6938 32.2704 48.783 30.825 49.2362 29.1383C49.6893 27.4516 49.4711 25.655 48.6273 24.1258C48.0609 23.0904 47.7594 21.931 47.7498 20.7508C47.7498 18.9606 48.4609 17.2437 49.7268 15.9779C50.9927 14.712 52.7096 14.0008 54.4998 14.0008C56.29 14.0008 58.0069 14.712 59.2727 15.9779C60.5386 17.2437 61.2498 18.9606 61.2498 20.7508V44.7133ZM113.157 73.8733C111.675 74.4621 110.094 74.76 108.5 74.7508C106.71 74.7508 104.993 75.462 103.727 76.7279C102.461 77.9937 101.75 79.7106 101.75 81.5008C101.75 83.291 102.461 85.0079 103.727 86.2738C104.993 87.5397 106.71 88.2508 108.5 88.2508C110.039 88.2531 111.575 88.1175 113.09 87.8458C114.469 89.98 115.217 92.4601 115.25 95.0008C115.25 98.5812 113.827 102.015 111.296 104.547C108.764 107.079 105.33 108.501 101.75 108.501C98.5639 108.504 95.4795 107.38 93.0423 105.328C91.6638 104.183 89.8867 103.631 88.1018 103.796C86.3169 103.96 84.6705 104.827 83.5248 106.206C82.379 107.584 81.8278 109.361 81.9924 111.146C82.1569 112.931 83.0238 114.578 84.4023 115.723C85.4277 116.542 86.5105 117.287 87.6423 117.951C87.1199 119.148 86.2616 120.167 85.1713 120.886C84.0811 121.605 82.8057 121.992 81.4998 122.001C79.7096 122.001 77.9927 121.29 76.7268 120.024C75.4609 118.758 74.7498 117.041 74.7498 115.251V101.751C74.7648 98.9879 75.6272 96.2962 77.2205 94.0389C78.8139 91.7817 81.0614 90.0677 83.6598 89.1283C85.3605 88.5555 86.7639 87.3305 87.5614 85.7228C88.3589 84.1151 88.4851 82.2565 87.9123 80.5558C87.3394 78.8551 86.1144 77.4517 84.5067 76.6542C82.8991 75.8567 81.0405 75.7305 79.3398 76.3033C77.7548 76.9002 76.2199 77.6225 74.7498 78.4633V68.0008C74.7648 65.2379 75.6272 62.5462 77.2205 60.2889C78.8139 58.0317 81.0614 56.3177 83.6598 55.3783C84.5019 55.0947 85.2799 54.6479 85.9493 54.0636C86.6188 53.4793 87.1666 52.7688 87.5614 51.9728C87.9563 51.1768 88.1906 50.3108 88.2507 49.4242C88.3109 48.5377 88.1959 47.6479 87.9123 46.8058C87.6286 45.9637 87.1819 45.1857 86.5976 44.5163C86.0132 43.8468 85.3028 43.299 84.5067 42.9042C83.7107 42.5093 82.8447 42.275 81.9582 42.2149C81.0716 42.1547 80.1819 42.2697 79.3398 42.5533C77.7548 43.1502 76.2199 43.8725 74.7498 44.7133V20.7508C74.7498 18.9606 75.4609 17.2437 76.7268 15.9779C77.9927 14.712 79.7096 14.0008 81.4998 14.0008C83.29 14.0008 85.0069 14.712 86.2727 15.9779C87.5386 17.2437 88.2498 18.9606 88.2498 20.7508C88.2401 21.931 87.9386 23.0904 87.3723 24.1258C86.9232 24.8922 86.6298 25.7397 86.5089 26.6197C86.3879 27.4997 86.4419 28.3949 86.6677 29.254C86.8934 30.1131 87.2865 30.9192 87.8244 31.6261C88.3623 32.333 89.0344 32.9267 89.8023 33.3733C90.5727 33.8196 91.4238 34.1091 92.3065 34.2251C93.1893 34.3411 94.0863 34.2813 94.9458 34.0491C95.8053 33.817 96.6105 33.4171 97.3148 32.8725C98.0192 32.3279 98.6088 31.6493 99.0498 30.8758C99.555 29.7819 99.9835 28.6542 100.332 27.5008C100.803 27.4352 101.28 27.4352 101.75 27.5008C103.54 27.5008 105.257 28.212 106.523 29.4779C107.789 30.7437 108.5 32.4606 108.5 34.2508C108.489 35.5741 108.09 36.8651 107.352 37.9633C106.8 38.8393 106.033 39.5595 105.125 40.0558C103.567 40.9509 102.429 42.4281 101.961 44.1623C101.492 45.8966 101.732 47.7458 102.627 49.3033C103.522 50.8608 105 51.9989 106.734 52.4673C108.468 52.9357 110.317 52.6959 111.875 51.8008C113.087 51.1454 114.219 50.3527 115.25 49.4383C117.501 50.6914 119.346 52.5624 120.569 54.8305C121.791 57.0985 122.338 59.669 122.147 62.2382C121.955 64.8074 121.032 67.2682 119.487 69.3299C117.942 71.3916 115.839 72.9681 113.427 73.8733H113.157Z" fill="#122E4D"/>
</svg>
