<svg width="127" height="127" viewBox="0 0 127 127" fill="none" xmlns="http://www.w3.org/2000/svg">
<path d="M126.531 114.055L91.297 78.8207C96.9726 70.6943 100.326 60.8265 100.326 50.1632C100.326 22.4587 77.8604 0 50.1632 0C22.466 0 0 22.4587 0 50.1632C0 77.8675 22.4587 100.326 50.1632 100.326C60.8265 100.326 70.7014 96.9726 78.8278 91.297L114.5 126.969L126.531 114.055ZM50.156 86.0011C30.3703 86.0011 14.3252 69.9632 14.3252 50.1703C14.3252 30.3774 30.3703 14.3395 50.156 14.3395C69.9489 14.3395 85.9868 30.3774 85.9868 50.1703C85.9941 69.9632 69.9561 86.0011 50.156 86.0011Z" fill="#6E662B"/>
</svg>
