<svg xmlns="http://www.w3.org/2000/svg" viewBox="0 0 512 512">
  <g transform="matrix(3.13604 0 0 3.13604 78.5 -1169.6)">
    <circle cx="56.6" cy="454.6" r="56.6" fill="#f35e79"/>
    <g fill="#fff">
      <path d="M44.5 483h28.3v25.9s-5 2.3-16.2 2.3c-6.8 0-12.1-1.1-12.1-1.1v-27.2z"/>
      <path d="M23.3 465.1a4 4 0 013-1.3l.9.2 13 6.8v-4.7L38 430a4 4 0 013.8-4.3 4 4 0 014.2 3.8l1.1 19h1l4.2.4v-22.6a4 4 0 018.1 0v26l3.3 1.4 2.8-22a4 4 0 014.5-3.6 4 4 0 013.6 4.6l-3.2 24.5 1.6.7 1.4.8 4.6-15.8a4 4 0 015-3c2.2.6 3.4 3 2.8 5.2l-10.4 37-.1.3-.1.5c-1 2.3-3.3 4-5.7 4H44.2c-1.6 0-3-.6-4-1.7l-20-17 3.1-3z"/>
    </g>
  </g>
</svg>