<svg xmlns="http://www.w3.org/2000/svg" fill="none" viewBox="0 0 512 512">
  <g fill="#fff">
    <path d="M239.2 217.6c1.8-4.1 6.2-9.9 12-10.4 3.6 0 6.2 2 9.1 4.4l10.2-6 .8 1.6-8.9 6.5a47.8 47.8 0 0111.7 18.5 31.3 31.3 0 0112-20.3c2.1-1.6 8.4-6 13.6-3.7 2.4 1 4.2 3.2 5.2 5.3l16-11.8-1.9-3.1-15.1 7-.5-1 18.2-14.4-2-3.9-42 24.3c8.3-8.1 18-14.6 27-21.2 9-6.2 20.7-10.7 17.8-27.1L261.1 199l-.8-1.3 69.7-48.3-2-3.1-10.5 3.6 5.2-15.6-31.9 13.8-.7-1.3 12.2-13.8-6.8-6-10.7 4.1 6.8-11.2-16.7 2.4-2-6-5.5-4.2-7.9 10.7 2.6-8.4-12.2 5.2-1.3-2 14.3-11.8-1.8-3.1-22.7 10.4v-13l-11 2.6 5.2-7.9-1-2.6-25.3 6.6 15.1-13.6-.5-3.7-24 1.9 2-5c-10.9 2.3-23-.3-31.5 12.8l11.2-4.2 1 3.7-26.8 5.5 5.2-10-1.8-1.3-15.2 9.4-5.2-9.4c-1 5.2-.8 8.9-2.4 10.5-2.3 2.6-7.8 5.4-8.6 5-6.2-6.9-7.3 0-9.6 1.8l8.8 6.5h21.5l-6 16.4c8 8.9 15.6 0 25-1.3l-18.3 13 3.4 4.2h16.2l-6 8.4 6.8 4.4-9.4 10.5 12-1 1 14.8 7.6-1.6-6 12 19-2.6-13.8 11.5 12-1.3.8 7.9 11.8-4.5-5.2 4.7c-11.3 5.2 1.8 12-1 17.8 3.8-.3 8.5.7 11.7-1 10.7-5.6 20.8-12 31.3-18.3l37.8-23c-14.8 12.5-31 23-46.7 34-10 7-23.2 11.4-21.4 29.4l29.5-18c0-2.6.5-5.2 1.3-7.6z"/>
    <path d="M216 246.6l2.5 4.2 22.5-13-2.6-7.4zm26.3-6l-12 9.4 1.8 3.1 13.6-6.8-2.9-5zm65.5-10.7a50 50 0 01-6.5 18.3l51.4-34-23.5 1.6 2.6-10c-3.9.9-7.8.9-11.2 2.7a208.8 208.8 0 00-14.4 8 38 38 0 011.6 13.4zm-70.2 62.4c15.4-3.4 28.2-12.3 41.8-19.9-4.2-1.5-8.1-3.6-11.8-5.7-10.7 7.8-21.6 15.1-30 25.8zm9.4-43.9l-20.4 15v3.3l11.3 2.6-5.3 8.4 1.9 2c8.6-4.1 17.5-7.8 26-12.5l4-2.3a65.6 65.6 0 01-17.5-16.5z"/>
    <path d="M396.8 326.7l-.5-2-5.5-.6 5.5-6.2-1.3-1.6-16.4 7.3L388 309l-21.7 3.4 21.4-26.1-7.3-2.9 1-9.4-12.2-1.8c.7-13-10.2-11.2-17.8-14.9l7.3-14.9c-23.7-2.6-37 19-58.2 25 19-16.9 43-25.2 58.5-44.8l-2.6-3.7-57 34-.2-.6a142.8 142.8 0 01-9.7 14.4l6-2.6-9.4 7-2.3 2.6h-.8l-29.7 20.4c-15.2 10.7-15.7 12.5-6.6 26.1L231.6 355l2.6 1.6 14.4-6.3.5 1-22 16.8 1.9 3.1 27.7-9.6-21 17 10.3 1-13.4 10.4 6 9.7 34.5-20.1c-10 9.4-20.9 17.5-31.3 26-2.6 2.7-5.5 7.6-5.2 11.3.5 5.2 3.6 10.7 5.7 16.7l17.7-10.4-2.6 9.9c14.7-4.7 7.9-17.8 14.1-24.6l-2-1.8-25.4 15.2-2-4.5 44.3-31-9.1-1.6-2.1-2.9c25-1 27.7-22.2 36.8-38L292.7 354l-.8-1.3 14.9-12.2-1.3-2.6-19.9 9.6c3.2-9.6 21.4-7.8 13.9-24 5.7-2.6 11.2-7 17.2-7.8 4.2-.8 8.9 3.1 12.8 4.7l-10 8.8 1.9 2.1 39.1-22.4 2.7 2.6-22.2 17.7c11.7 1.4 20.8 4 18.5-7.8l13.8 1-9.6 13.1 32.9-8.6z"/>
  </g>
</svg>